<?xml version="1.0" encoding="UTF-8"?><svg width="18px" height="18px" viewBox="0 0 18 18" version="1.1" xmlns="http://www.w3.org/2000/svg" xmlns:xlink="http://www.w3.org/1999/xlink"><title>Google logo</title><desc>Google G logo</desc><g id="letter-g" stroke="none" stroke-width="1" fill="none" fill-rule="evenodd"><path d="M17.64,9.20454545 C17.64,8.56636364 17.5827273,8.01363636 17.4763636,7.5 L9,7.5 L9,10.8409091 L13.8436364,10.8409091 C13.635,11.9704545 13.0009091,12.9231818 12.0477273,13.5613636 L12.0477273,15.8195455 L14.9563636,15.8195455 C16.6581818,14.2527273 17.64,11.9454545 17.64,9.20454545 Z" id="Path" fill="#4285F4"></path><path d="M9,18 C11.43,18 13.4672727,17.1940909 14.9563636,15.8195455 L12.0477273,13.5613636 C11.2418182,14.1 10.2109091,14.4204545 9,14.4204545 C6.65590909,14.4204545 4.67181818,12.8372727 3.96409091,10.71 L3.96409091,10.71 L0.957272727,13.0418182 L0.957272727,13.0418182 C2.43818182,15.9831818 5.48181818,18 9,18 Z" id="Path" fill="#34A853"></path><path d="M3.96409091,10.71 C3.78409091,10.17 3.68181818,9.59318182 3.68181818,9 C3.68181818,8.40681818 3.78409091,7.83 3.96409091,7.29 L3.96409091,4.95818182 L0.957272727,2.62636364 L0.957272727,2.62636364 C0.347727273,3.86181818 0,5.32090909 0,7.29 C0,9.25909091 0.347727273,10.7181818 0.957272727,11.9536364 L3.96409091,10.71 Z" id="Path" fill="#FBBC05"></path><path d="M9,3.57954545 C10.3213636,3.57954545 11.5077273,4.03363636 12.4404545,4.92545455 L15.0218182,2.34681818 C13.4631818,0.891818182 11.4254545,0 9,0 C5.48181818,0 2.43818182,2.01681818 0.957272727,4.95818182 L3.96409091,7.29 C4.67181818,5.16272727 6.65590909,3.57954545 9,3.57954545 Z" id="Path" fill="#EA4335"></path></g></svg> 